<?xml version="1.0" encoding="utf-8"?>
<svg version="1.1" xmlns="http://www.w3.org/2000/svg">

  <symbol id="call-center" viewBox="0 0 18 18">
    <path fill="currentcolor" d="M15.5455,7H14.818A5.9115,5.9115,0,0,0,9,1,5.9115,5.9115,0,0,0,3.182,7H2.4545A1.478,1.478,0,0,0,1,8.5v3A1.478,1.478,0,0,0,2.4545,13h2.182V7H4.6A4.47051,4.47051,0,0,1,9,2.4625,4.47051,4.47051,0,0,1,13.4,7h-.0365v5.669a5.09151,5.09151,0,0,1-3.1055,2.4A1.55753,1.55753,0,0,0,9,14.5a1.32171,1.32171,0,0,0-1.4545,1.125A1.32171,1.32171,0,0,0,9,16.75a1.394,1.394,0,0,0,1.4295-.9345A5.841,5.841,0,0,0,14.0275,13h1.518A1.478,1.478,0,0,0,17,11.5v-3A1.478,1.478,0,0,0,15.5455,7Z" />
  </symbol>

  <symbol id="play" viewBox="0 0 18 18">
    <path fill="currentcolor" d="M4.73,2H3.5a.5.5,0,0,0-.5.5v13a.5.5,0,0,0,.5.5H4.73a1,1,0,0,0,.5035-.136l11.032-6.433a.5.5,0,0,0,0-.862L5.2335,2.136A1,1,0,0,0,4.73,2Z" />
  </symbol>

  <symbol id="play-circle" viewBox="0 0 18 18">
    <path fill="currentcolor" d="M9,1a8,8,0,1,0,8,8A8,8,0,0,0,9,1Zm4.2685,8.43L7.255,12.93A.50009.50009,0,0,1,7,13H6.5a.5.5,0,0,1-.5-.5v-7A.5.5,0,0,1,6.5,5H7a.50009.50009,0,0,1,.255.07l6.0135,3.5a.5.5,0,0,1,0,.86Z" />
  </symbol>
  <symbol id="results" viewBox="0 0 18 18">
    <rect id="Canvas" fill="currentcolor" opacity="0"/>
    <path fill="currentcolor" d="M13,1.5V15h3V1.5a.5.5,0,0,0-.5-.5h-2A.5.5,0,0,0,13,1.5Z" />
    <path fill="currentcolor" d="M9,6.5V15h3V6.5a.5.5,0,0,0-.5-.5h-2A.5.5,0,0,0,9,6.5Z" />
    <path fill="currentcolor" d="M5,10.5V15H8V10.5a.5.5,0,0,0-.5-.5h-2A.5.5,0,0,0,5,10.5Z" />
    <path fill="currentcolor" d="M1,12.5V15H4V12.5a.5.5,0,0,0-.5-.5h-2A.5.5,0,0,0,1,12.5Z" />
    <rect fill="currentcolor" rx="0.25" y="16" />
  </symbol>

  <symbol id="objectives" viewBox="0 0 18 18">
    <rect id="Canvas" fill="currentcolor" opacity="0" width="18" height="18" />
    <path fill="currentcolor" d="M1,1.5v14a.5.5,0,0,0,.5.5h15a.5.5,0,0,0,.5-.5V1.5a.5.5,0,0,0-.5-.5H1.5A.5.5,0,0,0,1,1.5ZM16,15H2V2H16Z" />
    <path fill="currentcolor" d="M4.775,7.9585a.5.5,0,0,1-.3395-.133L3.397,6.867a.50015.50015,0,1,1,.6785-.735l.6555.6055L6.871,4.218a.50079.50079,0,1,1,.762.65L5.156,7.7845a.5.5,0,0,1-.35.1755Z" />
    <path fill="currentcolor" d="M4.775,12.9585a.5.5,0,0,1-.3395-.133L3.397,11.867a.50015.50015,0,0,1,.6785-.735l.6555.6055L6.871,9.218a.50079.50079,0,1,1,.762.65L5.156,12.7845a.5.5,0,0,1-.35.1755Z" />
    <rect fill="currentcolor" height="2" rx="0.25" width="5" x="9" y="5" />
    <rect fill="currentcolor" height="2" rx="0.25" width="5" x="9" y="10" />
  </symbol>

  <symbol id="chat" viewBox="0 0 18 18">
    <rect id="Canvas" fill="currentcolor" opacity="0" width="18" height="18" />
    <path id="Path_13" data-name="Path 13" d="M12.84,9.881v7a.269.269,0,0,1-.269.269H6.759a.268.268,0,0,0-.191.079l-1.8,1.805V17.416a.269.269,0,0,0-.269-.269H2.884a.269.269,0,0,1-.269-.269v-7a.269.269,0,0,1,.269-.269h9.688A.269.269,0,0,1,12.84,9.881Zm-.015-1.852H2.615A1.615,1.615,0,0,0,1,9.644v7.5a1.615,1.615,0,0,0,1.615,1.615h.538v2.906a.377.377,0,0,0,.63.279l3.5-3.185h5.573a1.582,1.582,0,0,0,1.582-1.583V9.644A1.615,1.615,0,0,0,12.825,8.029Z" transform="translate(0.088 0.791)"/>
    <path id="Path_14" data-name="Path 14" d="M15.583,9.227a2.422,2.422,0,0,0-2.422-2.422H7.506V4.115A1.615,1.615,0,0,1,9.121,2.5h11.3a1.615,1.615,0,0,1,1.615,1.615v7.535a1.615,1.615,0,0,1-1.615,1.615H18.8v2.959a.269.269,0,0,1-.455.195L15.583,13.8Z" transform="translate(0.585 0.369)"/>
  </symbol>

  <symbol id="checkmark" viewBox="0 0 18 18">
    <path fill="currentcolor" d="M15.656,3.8625l-.7275-.5665a.5.5,0,0,0-.7.0875L7.411,12.1415,4.0875,8.8355a.5.5,0,0,0-.707,0L2.718,9.5a.5.5,0,0,0,0,.707l4.463,4.45a.5.5,0,0,0,.75-.0465L15.7435,4.564A.5.5,0,0,0,15.656,3.8625Z" />
  </symbol>

  <symbol id="facebook" viewBox="0 0 18 18">
    <title>Facebook</title>
    <desc>Facebook Logo</desc>
    <path d="M10.5,18V9.8h3l0.4-3.2h-3.4v-2c0-0.9,0.3-1.6,1.7-1.6H14V0.1C13.1,0,12.2,0,11.3,0C8.7,0,6.9,1.5,6.9,4.2v2.4
	H4v3.2h3V18H10.5L10.5,18z"/>
  </symbol>

  <symbol id="linkedin" viewBox="0 0 17 17.1">
    <title>LinkedIn</title>
    <desc>LinkedIn Logo</desc>
    <path d="M3.7,16.3H0.4V5.7h3.3V16.3z M2,4.4L2,4.4C1,4.5,0.1,3.7,0,2.7c0-0.1,0-0.1,0-0.2c0-1,0.8-1.9,1.9-1.8c0,0,0.1,0,0.1,0
	c1-0.1,1.9,0.6,2,1.6c0.1,1-0.6,1.9-1.6,2C2.3,4.4,2.1,4.4,2,4.4z M17,16.3h-3.8v-5.5c0-1.4-0.6-2.4-1.9-2.4c-0.8,0-1.5,0.5-1.8,1.3
	c-0.1,0.3-0.1,0.6-0.1,0.9v5.7H5.8c0,0,0-9.7,0-10.6h3.7v1.7c0.7-1.2,2-1.9,3.3-1.8c2.4,0,4.2,1.5,4.2,4.8V16.3z"/>
  </symbol>

  <symbol id="twitter" viewBox="0 0 17.2 17.2">
    <title>Twitter</title>
    <desc>Twitter Logo</desc>
    <path d="M17.2,3.3L17.2,3.3 M11.9,1.6c-2,0-3.5,1.6-3.5,3.5c0,0.3,0,0.5,0.1,0.8C5.6,5.8,3,4.5,1.2,2.3C0.3,3.9,0.7,6,2.3,7
	C1.7,7,1.2,6.8,0.7,6.6c0,0,0,0,0,0c0,1.7,1.2,3.1,2.8,3.5c-0.3,0.1-0.6,0.1-0.9,0.1c-0.2,0-0.4,0-0.7-0.1c0.5,1.4,1.8,2.4,3.3,2.5
	c-1.3,1-2.8,1.5-4.4,1.5c-0.3,0-0.6,0-0.8,0c4.7,3,10.9,1.6,13.9-3c1-1.6,1.6-3.5,1.6-5.4c0-0.2,0-0.3,0-0.5
	c0.7-0.5,1.3-1.1,1.8-1.8c-0.6,0.3-1.3,0.5-2,0.6c0.7-0.4,1.3-1.1,1.6-2c-0.7,0.4-1.5,0.7-2.2,0.9C13.8,2,12.9,1.6,11.9,1.6"/>
  </symbol>

  <symbol id="link" viewBox="0 0 22 22">
    <title>Copy</title>
    <desc>Copy to Clipboard</desc>
    <path d="M11,0C4.9,0,0,4.9,0,11s4.9,11,11,11s11-5,11-11S17,0,11,0z M11.9,16.8l-0.8,0.8c-1.9,1.6-4.6,1.5-6.4-0.3
    c-1.5-1.8-1.5-4.3,0-6.1L6.9,9c1.8-1.8,4.6-1.8,6.4,0c0.3,0.3,0.3,1,0,1.3s-1,0.3-1.3,0l0,0c-1-1-2.6-1-3.6,0l0,0l-2.2,2.2
    c-1,1.1-0.9,2.8,0.2,3.7c1,0.9,2.5,0.9,3.5,0l0.7-0.7c0.3-0.3,1-0.3,1.3,0S12.2,16.5,11.9,16.8z M17.6,11.1l-2.2,2.2
    c-1.8,1.8-4.6,1.8-6.4,0l0,0c-0.3-0.3-0.3-1,0-1.3s1-0.3,1.3,0l0,0c1,1,2.6,1,3.7,0l2.2-2.2c1-1.1,0.9-2.8-0.2-3.7
    c-1-0.9-2.5-0.9-3.5,0l-0.7,0.8c-0.3,0.3-1,0.3-1.3,0c-0.3-0.3-0.3-1,0-1.3l0,0l0.7-0.8C13,3,15.8,3,17.6,4.7S19.4,9.4,17.6,11.1
    L17.6,11.1z"/>
  </symbol>

  <symbol id="info" viewBox="0 0 18 18">
    <path fill="currentcolor"
      d="M10.075,6A1.075,1.075,0,1,1,9,4.925H9A1.075,1.075,0,0,1,10.075,6Zm.09173,6H10V8.2A.20005.20005,0,0,0,9.8,8H7.83324S7.25,8.01612,7.25,8.5c0,.48365.58325.5.58325.5H8v3H7.83325s-.58325.01612-.58325.5c0,.48365.58325.5.58325.5h2.3335s.58325-.01635.58325-.5C10.75,12.01612,10.16673,12,10.16673,12ZM9,.5A8.5,8.5,0,1,0,17.5,9,8.5,8.5,0,0,0,9,.5ZM9,15.6748A6.67481,6.67481,0,1,1,15.67484,9,6.67481,6.67481,0,0,1,9,15.6748Z" />
  </symbol>

  <symbol id="edit-pdfs" width="19.373" height="17.688" viewBox="0 0 19.373 17.688">
    <g id="Group_596630" data-name="Group 596630" transform="translate(9367.873 9248.978)">
      <path id="Path_625438" data-name="Path 625438" d="M11.152,14.19h-.423L7.938,16.717V14.19H2.884V4.083H16.361v6.3a5.546,5.546,0,0,1,1.685.26v-6.3a2.032,2.032,0,0,0-.59-1.432A1.858,1.858,0,0,0,16.192,2.4H3.052A1.716,1.716,0,0,0,1.789,2.9,1.987,1.987,0,0,0,1.2,4.251v9.771a1.8,1.8,0,0,0,.59,1.348,1.859,1.859,0,0,0,1.263.505h3.2v3.959a.223.223,0,0,0,.253.253A.262.262,0,0,0,6.674,20l4.212-3.734c-.011-.141-.015-.286-.015-.43A5.324,5.324,0,0,1,11.152,14.19Z" transform="translate(-9369.072 -9251.376)" fill="#444" fill-rule="evenodd"/>
      <path id="Path_625439" data-name="Path 625439" d="M17.074,4.8v6.243c.045,0,.051.026.023.075h-.023a5.477,5.477,0,0,0-5.223,3.829c-.055.015-.08,0-.067-.038h-.342L8.651,17.431V14.9H3.6V4.8Z" transform="translate(-9369.785 -9252.089)" fill="#444" fill-rule="evenodd" opacity="0.1"/>
      <path id="Path_625440" data-name="Path 625440" d="M5.993,10.013a.417.417,0,0,1,.421-.421h9.265a.421.421,0,1,1,0,.842H6.414A.417.417,0,0,1,5.993,10.013Zm0,2.527a.417.417,0,0,1,.421-.421h7.581a.421.421,0,1,1,0,.842H6.414A.417.417,0,0,1,5.993,12.54ZM17.787,13.8a4.212,4.212,0,1,1-4.212,4.212A4.212,4.212,0,0,1,17.787,13.8Zm.378,1.68h-.751a.469.469,0,0,0-.469.469h0v1.236l-1.2,0a.469.469,0,0,0-.469.469h0l-.008.738a.469.469,0,0,0,.469.468h1.211l.006,1.217a.468.468,0,0,0,.468.468h0l.742,0a.469.469,0,0,0,.47-.469h0l0-1.222h1.215a.469.469,0,0,0,.469-.468h0l0-.748a.468.468,0,0,0-.468-.468H18.629l0-1.221a.469.469,0,0,0-.47-.469Z" transform="translate(-9370.498 -9253.516)" fill="#444"/>
    </g>
  </symbol>

  <symbol id="edit-photos" width="20.12" height="17.885" viewBox="0 0 20.12 17.885">
    <g id="Group_596628" data-name="Group 596628" transform="translate(9431.12 9298.408)">
      <circle id="Ellipse_24866" data-name="Ellipse 24866" cx="2" cy="2" r="2" transform="translate(-9419 -9295.408)" fill="#444"/>
      <path id="Path_129410" data-name="Path 129410" d="M13,9.277a2.517,2.517,0,0,1,1.309.693l2.044,1.863V7H13Z" transform="translate(-9429.589 -9298.701)" fill="#444" opacity="0.3"/>
      <path id="Path_129411" data-name="Path 129411" d="M6.963,7.734l2.486,2.487V7H5.19a2.515,2.515,0,0,1,1.774.734Z" transform="translate(-9430.509 -9298.701)" fill="#444" opacity="0.3"/>
      <path id="Path_129412" data-name="Path 129412" d="M5,7.019C5.07,7.013,5.141,7,5.212,7H5Z" transform="translate(-9430.531 -9298.701)" fill="#444" opacity="0.3"/>
      <path id="Path_129413" data-name="Path 129413" d="M5.353,7.471V3A3.353,3.353,0,0,0,2,6.353V7.471Z" transform="translate(-9430.885 -9299.173)" fill="#444" opacity="0.3"/>
      <path id="Path_129414" data-name="Path 129414" d="M14.531,1H5.589A5.6,5.6,0,0,0,0,6.589V13.3a5.6,5.6,0,0,0,5.589,5.589h8.942A5.6,5.6,0,0,0,20.12,13.3V6.589A5.6,5.6,0,0,0,14.531,1ZM5.589,3.236h8.942a3.353,3.353,0,0,1,3.353,3.353V12.54L15.84,10.677a2.5,2.5,0,0,0-3.509-.042l-1.354,1.208-3.4-3.4a2.513,2.513,0,0,0-3.539-.012l-1.8,1.737V6.589A3.353,3.353,0,0,1,5.589,3.236Zm8.942,13.414H5.589A3.353,3.353,0,0,1,2.236,13.3v-.013L5.6,10.024a.278.278,0,0,1,.393,0l4.15,4.152a1.118,1.118,0,0,0,1.536.042l2.186-1.96c.137-.134.224-.167.429.036l3.061,2.794a3.347,3.347,0,0,1-2.827,1.56Z" transform="translate(-9431.12 -9299.408)" fill="#444"/>
      <path id="Path_129415" data-name="Path 129415" d="M11.236,5.794a1.677,1.677,0,0,1,1.677-1.677,1.66,1.66,0,0,1,.559.1V3H9V7.471h3.912a1.677,1.677,0,0,1-1.677-1.677Z" transform="translate(-9430.06 -9299.173)" fill="#444" opacity="0.3"/>
      <path id="Path_129416" data-name="Path 129416" d="M12.5,7.011h.559v-.1a1.66,1.66,0,0,1-.559.1Z" transform="translate(-9429.647 -9298.712)" fill="#444" opacity="0.3"/>
    </g>
  </symbol>

  <symbol id="edit-videos" width="22.046" height="15.512" viewBox="0 0 22.046 15.512">
    <g id="Group_596631" data-name="Group 596631" transform="translate(9291 9297.035)">
      <path id="Path_967884" data-name="Path 967884" d="M23.826,8.014a4.752,4.752,0,0,0-.883-2.185,3.157,3.157,0,0,0-2.2-.934c-3.083-.224-7.716-.224-7.716-.224h0s-4.628,0-7.716.224a3.157,3.157,0,0,0-2.2.934,4.725,4.725,0,0,0-.878,2.185A32.881,32.881,0,0,0,2,11.585v1.671a33.613,33.613,0,0,0,.219,3.576,4.777,4.777,0,0,0,.874,2.187,3.766,3.766,0,0,0,2.432.943c1.766.168,7.5.219,7.5.219s4.633-.009,7.716-.228a3.164,3.164,0,0,0,2.2-.934,4.752,4.752,0,0,0,.878-2.187,33.523,33.523,0,0,0,.224-3.576V11.585a33.6,33.6,0,0,0-.219-3.571Zm-13.082,7.27v-6.2L16.7,12.2Z" transform="translate(-9293 -9301.705)" fill="#444"/>
    </g>
  </symbol>

  <symbol id="fill-and-sign-pdfs" width="19.206" height="17.605" viewBox="0 0 19.206 17.605">
    <g id="Group_596632" data-name="Group 596632" transform="translate(9237.5 9251.269)">
      <path id="Path_611353" data-name="Path 611353" d="M11.547,16.725c.248.36.416.712.664,1.072a1.732,1.732,0,0,0,1.249.72,2.048,2.048,0,0,0,1.745-.712,1.765,1.765,0,0,0,1.168.8h.256c.584,0,1.372-.336,2.24-2.057l.337-.632-1.08-1.248-.584,1.248c-.168.36-.416.984-.832.9a1.02,1.02,0,0,1-.584-.36,3.208,3.208,0,0,0,.5-2.417,1.13,1.13,0,0,0-.92-.712,1.242,1.242,0,0,0-1.249.712,3.89,3.89,0,0,0-.328,2.153.423.423,0,0,1-.584.36,4.642,4.642,0,0,1-.752-1.617v-.088c1.337-2.153-2.329-2.329-1.913-.176v.088c-.5.712-2.1,2.249-2.881,2.249H1.927L3.36,12.932,12.972,2.689a.256.256,0,0,1,.184-.088.285.285,0,0,1,.184.072l2.049,2.049a.332.332,0,0,1,.008.448L5.9,15.3a.8.8,0,0,0,1.168,1.088l9.5-10.131a1.947,1.947,0,0,0-.04-2.673L14.46,1.536A1.938,1.938,0,0,0,13.124,1a1.828,1.828,0,0,0-1.321.592L2.079,11.964a.771.771,0,0,0-.168.28l-1.865,5.3a.815.815,0,0,0,.1.728.823.823,0,0,0,.656.336h8A5.067,5.067,0,0,0,11.547,16.725Z" transform="translate(-9237.5 -9252.269)" fill="#444" fill-rule="evenodd"/>
      <path id="Path_611354" data-name="Path 611354" d="M4.2,13.3,13.864,2.921a.251.251,0,0,1,.182-.089.28.28,0,0,1,.182.072l2.037,2.171a.338.338,0,0,1,.008.451L6.905,15.522Z" transform="translate(-9238.339 -9252.635)" fill="#444" fill-rule="evenodd"/>
    </g>
  </symbol>

  <symbol id="view-pdfs" width="16" height="18.667" viewBox="0 0 16 18.667">
    <g id="Group_596629" data-name="Group 596629" transform="translate(9504.006 9250.722)">
      <path id="Path_625435" data-name="Path 625435" d="M17.222,5.711V17.889H4.778V2.778H14.2ZM14.289,1H4.778A1.783,1.783,0,0,0,3,2.778V17.889a1.783,1.783,0,0,0,1.778,1.778H17.222A1.783,1.783,0,0,0,19,17.889V5.444a1.64,1.64,0,0,0-.444-1.067l-3.2-2.933A1.472,1.472,0,0,0,14.289,1Z" transform="translate(-9507.006 -9251.722)" fill="#444"/>
      <path id="Path_625436" data-name="Path 625436" d="M17.5,5.943v12.22H5V3h9.462Z" transform="translate(-9507.254 -9251.97)" fill="#444" opacity="0.1"/>
      <path id="Path_625437" data-name="Path 625437" d="M8.719,12.745a7.7,7.7,0,0,1-.483.628c-.078.09-.154.172-.228.247a1.284,1.284,0,0,1-.748.462.244.244,0,0,1-.171-.06.339.339,0,0,1-.049-.054A.226.226,0,0,1,7,13.85a.259.259,0,0,1,0-.067.4.4,0,0,1,.022-.072.992.992,0,0,1,.239-.322q.044-.043.1-.087a6.669,6.669,0,0,1,1.611-.931Q8.843,12.568,8.719,12.745Zm5.613-1.653a3.91,3.91,0,0,1,.714.054.475.475,0,0,1,.39.268.324.324,0,0,1,.015.089.433.433,0,0,1-.009.105c-.037.187-.235.308-.506.308a1.043,1.043,0,0,1-.107-.013.932.932,0,0,1-.122-.015,3.75,3.75,0,0,1-1.448-.715c.111-.017.218-.03.32-.04a7.275,7.275,0,0,1,.751-.04Zm-2.156-.222c-.287.059-.583.127-.883.2-.216.056-.435.117-.653.182.116-.232.223-.462.316-.681.123-.289.238-.578.344-.861.093.143.189.281.288.414s.2.258.3.38.2.238.308.349l-.025.005ZM10.694,5.879a.311.311,0,0,1,.023-.031.266.266,0,0,1,.208-.115.245.245,0,0,1,.155.05.649.649,0,0,1,.153.5,3.456,3.456,0,0,1-.048.536,8.549,8.549,0,0,1-.208.932q-.035.127-.075.259a5.367,5.367,0,0,1-.233-.758,3.713,3.713,0,0,1-.088-.618,2.179,2.179,0,0,1,.021-.462.843.843,0,0,1,.094-.289Zm5.671,5.694a.817.817,0,0,0-.051-.212.751.751,0,0,0-.153-.247,1.165,1.165,0,0,0-.291-.218,3.231,3.231,0,0,0-1.507-.282c-.215,0-.445.01-.688.031s-.5.051-.764.092a7.081,7.081,0,0,1-.837-.953,8.663,8.663,0,0,1-.523-.794q.116-.356.2-.678c.034-.126.064-.247.092-.366q.058-.252.1-.479c.018-.1.033-.206.044-.3a3.994,3.994,0,0,0,.029-.465A1.544,1.544,0,0,0,11.5,5.418a.872.872,0,0,0-.168-.094,1.03,1.03,0,0,0-.4-.074.772.772,0,0,0-.381.106.8.8,0,0,0-.287.279,1.685,1.685,0,0,0-.186.866,3.6,3.6,0,0,0,.033.425,5.893,5.893,0,0,0,.492,1.65c-.048.137-.1.274-.146.411-.1.273-.206.547-.321.832-.058.142-.118.286-.181.435a14.864,14.864,0,0,1-.733,1.486,6.864,6.864,0,0,0-2.469,1.483,1.085,1.085,0,0,0-.242.472.763.763,0,0,0-.012.189.7.7,0,0,0,.12.346.812.812,0,0,0,.129.148.861.861,0,0,0,.2.13L7,14.532a1.051,1.051,0,0,0,.181.06,1.2,1.2,0,0,0,.272.031,1.4,1.4,0,0,0,.584-.138,2.3,2.3,0,0,0,.383-.226,4.364,4.364,0,0,0,.73-.688,8.684,8.684,0,0,0,.658-.878c.153-.231.3-.465.427-.692q.3-.1.6-.189c.2-.06.4-.116.606-.168l.128-.031c.4-.1.783-.185,1.147-.248q.1.088.206.167.2.158.4.282.1.062.194.117a3.6,3.6,0,0,0,1.778.517,1.334,1.334,0,0,0,.729-.173.785.785,0,0,0,.106-.081.7.7,0,0,0,.185-.272.739.739,0,0,0,.049-.235A.8.8,0,0,0,16.365,11.573Z" transform="translate(-9507.44 -9252.136)" fill="#444"/>
    </g>
  </symbol>
</svg>
